<?xml version="1.0" encoding="UTF-8" standalone="no"?>
<!-- Created with Inkscape (http://www.inkscape.org/) -->

<svg
   xmlns:dc="http://purl.org/dc/elements/1.1/"
   xmlns:cc="http://creativecommons.org/ns#"
   xmlns:rdf="http://www.w3.org/1999/02/22-rdf-syntax-ns#"
   xmlns:svg="http://www.w3.org/2000/svg"
   xmlns="http://www.w3.org/2000/svg"
   xmlns:sodipodi="http://sodipodi.sourceforge.net/DTD/sodipodi-0.dtd"
   xmlns:inkscape="http://www.inkscape.org/namespaces/inkscape"
   width="20mm"
   height="20mm"
   viewBox="0 0 20 20"
   version="1.1"
   id="svg8"
   sodipodi:docname="colorSelector2.svg"
   inkscape:version="1.0.1 (3bc2e813f5, 2020-09-07)"
   inkscape:export-filename="D:\Projekty\ImageProcessing\icon\colorSelector2.png"
   inkscape:export-xdpi="25.4"
   inkscape:export-ydpi="25.4">
  <defs
     id="defs2">
    <inkscape:path-effect
       effect="mirror_symmetry"
       start_point="10.776329,0.29232645"
       end_point="10.776329,20.010322"
       center_point="10.776329,10.151324"
       id="path-effect848"
       is_visible="true"
       lpeversion="1"
       mode="free"
       discard_orig_path="false"
       fuse_paths="false"
       oposite_fuse="false"
       split_items="false" />
    <inkscape:path-effect
       effect="mirror_symmetry"
       start_point="10.730096,1.5367995"
       end_point="10.730096,16.890867"
       center_point="10.730096,9.2138331"
       id="path-effect840"
       is_visible="true"
       lpeversion="1"
       mode="free"
       discard_orig_path="false"
       fuse_paths="true"
       oposite_fuse="false"
       split_items="false" />
  </defs>
  <sodipodi:namedview
     id="base"
     pagecolor="#ffffff"
     bordercolor="#666666"
     borderopacity="1.0"
     inkscape:pageopacity="0"
     inkscape:pageshadow="2"
     inkscape:zoom="7.9195959"
     inkscape:cx="27.767793"
     inkscape:cy="37.882337"
     inkscape:document-units="mm"
     inkscape:current-layer="layer1"
     inkscape:document-rotation="0"
     showgrid="false"
     showguides="true"
     inkscape:guide-bbox="true"
     inkscape:window-width="1827"
     inkscape:window-height="1057"
     inkscape:window-x="-8"
     inkscape:window-y="-8"
     inkscape:window-maximized="1"
     inkscape:snap-smooth-nodes="true"
     inkscape:pagecheckerboard="false">
    <sodipodi:guide
       position="5.9133381,14.420748"
       orientation="1,0"
       id="guide833" />
    <sodipodi:guide
       position="10.481977,19.707673"
       orientation="0,-1"
       id="guide843" />
  </sodipodi:namedview>
  <metadata
     id="metadata5">
    <rdf:RDF>
      <cc:Work
         rdf:about="">
        <dc:format>image/svg+xml</dc:format>
        <dc:type
           rdf:resource="http://purl.org/dc/dcmitype/StillImage" />
        <dc:title></dc:title>
      </cc:Work>
    </rdf:RDF>
  </metadata>
  <g
     inkscape:label="Warstwa 1"
     inkscape:groupmode="layer"
     id="layer1">
    <path
       id="rect852"
       style="fill:#0000ff;stroke:none;stroke-width:1.88976;stroke-miterlimit:4;stroke-dasharray:none"
       d="M 18.982422 51.908203 L 10.865234 60.800781 C 10.865234 60.800781 9.3616259 62.527221 10.791016 63.832031 C 11.941121 64.881896 9.7961255 66.117583 11.310547 67.523438 L 25.568359 51.908203 L 18.982422 51.908203 z M 11.310547 67.523438 L 11.308594 67.525391 C 11.312353 67.528802 11.316559 67.529835 11.320312 67.533203 C 11.316638 67.529829 11.314179 67.52681 11.310547 67.523438 z M 11.320312 67.533203 C 12.857954 68.913135 13.894866 66.665016 15.044922 67.714844 C 16.474312 69.019654 18.056641 67.365234 18.056641 67.365234 L 32.166016 51.908203 L 25.580078 51.908203 L 11.320312 67.533203 z "
       transform="scale(0.26458333)" />
    <path
       style="fill:none;stroke:#000000;stroke-width:0.5;stroke-linecap:butt;stroke-linejoin:miter;stroke-miterlimit:4;stroke-dasharray:none;stroke-opacity:1"
       d="m 2.9949303,17.868297 c -0.40632,-0.373073 0.1650041,-0.701178 -0.1400245,-0.979621 -0.3781927,-0.345231 0.019623,-0.801972 0.019623,-0.801972 L 10.53261,7.6974462 8.756061,6.075735 9.4768215,5.2861578 10.784559,6.4799174 c 0,0 0.02671,-0.9707859 1.130376,-2.1798261 1.103665,-1.2090401 2.731536,-2.4936891 3.636768,-1.667354 L 16.28726,3.3041855 M 2.9922833,17.865881 c 0.4084775,0.370709 0.6832672,-0.228085 0.9882957,0.05036 0.3781927,0.345231 0.7968638,-0.09247 0.7968638,-0.09247 l 7.6580812,-8.3892584 1.776549,1.6217114 0.72076,-0.789578 -1.307737,-1.1937592 c 0,0 0.964334,-0.1148829 2.067999,-1.323923 1.103664,-1.2090402 2.234954,-2.946991 1.329722,-3.7733261 L 16.28726,3.3041855"
       id="path835"
       sodipodi:nodetypes="cscccccssc" />
    <path
       style="fill:#000000;stroke:#000000;stroke-width:0.5;stroke-linecap:butt;stroke-linejoin:miter;stroke-miterlimit:4;stroke-dasharray:none;stroke-opacity:1"
       d="M 14.212073,11.056224 8.756061,6.075735 9.4768215,5.2861578 10.784559,6.4799174 c 0,0 0.02671,-0.9707859 1.130376,-2.1798261 1.103665,-1.2090401 2.731536,-2.4936891 3.636768,-1.667354 l 0.735557,0.6714482 m -2.075187,7.7520385 0.72076,-0.789578 -1.307737,-1.1937592 c 0,0 0.964334,-0.1148829 2.067999,-1.323923 1.103664,-1.2090402 2.234954,-2.946991 1.329722,-3.7733261 L 16.28726,3.3041855"
       id="path850"
       sodipodi:nodetypes="ccccssccccssc" />
  </g>
</svg>
